<svg height="42" viewBox="0 0 72 42" width="72" xmlns="http://www.w3.org/2000/svg"><g fill="none" fill-rule="evenodd"><path d="m0 0h72v42h-72z" fill="#fff" opacity="0"/><g fill-rule="nonzero"><path d="m-12.586.389h95.454v40.192h-95.454z" fill="#333" opacity="0"/><g><path d="m68.6749555 0c1.8363714 0 3.3250445 1.46818334 3.3250445 3.27927927v35.44144143c0 1.811096-1.4886731 3.2792793-3.3250445 3.2792793h-65.3499111c-1.83637131 0-3.3250444-1.4681833-3.3250444-3.2792793v-35.44144143c0-1.81109593 1.48867309-3.27927927 3.3250444-3.27927927zm-40.8343104 26.7254692h-.9754347l-3.5850396 10.7156756h.8867588l1.0767786-3.3635315h4.1550993l1.0514427 3.3635315h.8867588zm6.7265911 0h-2.8356835v10.7156756h2.8356835c.2766519 0 .5494617-.0173633.8184289-.05209.2689672-.0347268.5283286-.0992192.778084-.1934775.2497553-.0942582.4879835-.2257238.7146844-.3943965.226701-.1686725.4361112-.3919158.6282306-.6697297.1921195-.2678917.3515786-.563069.4783775-.8855315.126799-.3224623.2286223-.6598077.30547-1.012036.0768479-.3522283.1325624-.7118979.167144-1.0790091.0345814-.3671109.0518721-.7292612.0518721-1.0864504 0-.3571891-.0211329-.7466245-.0633993-1.1683063-.0422663-.4216815-.1152717-.8384024-.2190161-1.2501622-.1037447-.4117597-.2439919-.8036756-.4207419-1.1757476-.1767498-.3720721-.4034508-.6870931-.6801028-.9450632-.1921196-.1785945-.3900024-.3224623-.5936492-.4316035-.2036467-.1091412-.413057-.190997-.6282307-.2455676-.2151738-.0545706-.43419-.0892972-.6570487-.1041801-.2228584-.0148829-.4495595-.0223244-.6801028-.0223244zm8.4928255 0h-3.1861005v10.7156756h.7682797v-4.8667026h2.4178208c.1883037 0 .3709582.0148829.5479639.0446487.1770055.0297657.3370638.0892972.4801747.1785945.143111.0892974.2655084.2207628.3671924.3943964s.1751224.4043183.2203154.6920541c.0301287.2083603.050842.4762522.0621403.8036756.0112982.3274235.0263625.6647689.0451929 1.0120361.0188305.3472673.0451929.6796517.0790875.9971531.0338948.3175015.0922689.5655496.1751226.7441441h.8473671v-.1041801c-.0527251-.0496095-.0979181-.1215435-.1355788-.2158018-.0376606-.0942583-.0696723-.2257237-.0960348-.3943964-.0263627-.1686727-.0489591-.386955-.0677894-.6548469s-.0320116-.6052371-.0395438-1.012036c-.0075321-.2778137-.0207136-.5655494-.0395438-.8632071-.0188303-.2976577-.0621403-.5804325-.1299297-.8483244s-.1694734-.5060179-.3050522-.7143784c-.1355786-.2083604-.3238825-.3671111-.5649111-.4762523.4669932-.2778137.804057-.6151591 1.0111912-1.012036.2071341-.3968768.3107012-.9326606.3107012-1.6073512 0-.9921923-.2372628-1.7090511-.7117883-2.1505766-.4745255-.4415257-1.1599513-.6622884-2.0562773-.6622884zm-8.6657332.8632073c.3458151 0 .6877878.0248047 1.025918.0744144.3381303.0496095.6301521.1587507.8760649.3274234.2920217.1984385.5302498.4489669.7146843.7515856.1844349.3026186.3304458.6350029.4380327.9971532.1075868.3621501.1805922.7441441.2190161 1.1459819.0384238.4018378.0576359.7962342.0576359 1.1831892 0 .3671111-.0211333.7491051-.0633994 1.145982-.0422664.3968769-.1152718.7763903-.2190162 1.1385406-.1037445.3621501-.2439917.697015-.4207419 1.0045945-.1767498.3075796-.4034507.5506667-.6801028.7292612-.3227608.2182824-.6397578.3547087-.9509913.4092793-.3112337.0545706-.6436005.0818559-.9971003.0818559h-1.8789283v-8.9892612zm-7.0730706 0 1.7861858 5.6257297h-3.5723717zm15.7614002 0c.2560931 0 .5027711.0297658.7400337.0892973.2372629.0595315.4481631.1637116.6327009.3125405.1845378.1488288.3314148.3522283.4406309.6101982.1092161.25797.1638244.5853934.1638244.9822703 0 .377033-.0527253.6994955-.1581752.9673874-.1054504.2678918-.2485611.4886546-.4293329.6622882-.1807716.1736336-.3935548.3001381-.6383497.3795136-.2447949.0793753-.5103033.119063-.7965251.119063h-2.3952242v-4.1225585zm21.2800736-4.1701765h-61.00507316v.504h61.00507316zm-51.9118988-11.4581449-9.21996686 2.1250822 6.31788126 6.9145627 9.6691122-2.8456057zm-.3650847 1.3786678 4.629263 4.2370811-6.76442451 1.9907748-4.32879631-4.7378018zm10.7231034-2.828374c-.8880489 0-1.6449714.31522-2.2707671.94566-.6257958.6304401-.9993291 1.4507953-1.1206003 2.4610656-.1231513 1.0259335.0541723 1.8237729.5319706 2.3935185.4777981.5697454 1.1096392.8546182 1.8955233.8546182.3222124 0 .6147853-.0313262.8777183-.0939786.4886211-.1096418.9128395-.3210937 1.2726554-.6343559.2141635-.1801257.4158905-.4121354.6051808-.6960293.1892901-.2838938.3115545-.5413561.3667929-.7723869h-1.043261c-.1119616.2780202-.2749396.5227562-.4889339.7342081-.3737854.3641673-.8377021.5462509-1.3917506.5462509-.5933423 0-1.0083231-.192852-1.2449421-.578556-.2366191-.385704-.3264436-.8976918-.2694739-1.5359634h4.6268926c.0761469-.6343558.1001766-1.0964174.0720891-1.3861849-.0199649-.4229039-.117005-.7929448-.2911203-1.1101227-.1800939-.332841-.4677912-.6040085-.8630919-.8135026-.3953007-.209494-.816928-.314241-1.2648819-.314241zm7.7874037-2.10010671c-.9967373 0-1.8686831.34016217-2.6158376 1.0204865-.8590601.78125151-1.3965273 1.89332021-1.6124016 3.33620581-.1996558 1.3344823-.0305376 2.3848732.507354 3.1511726.5384513.7625613 1.377753 1.143842 2.5179055 1.143842.9214441 0 1.7192884-.2822225 2.3935324-.8466674.6742441-.5644449 1.1504648-1.2971019 1.4286617-2.1979709h-1.6403138c-.1749026.4261372-.3625493.7457401-.5629403.9588088-.3640392.3962328-.8364751.5943492-1.4173075.5943492-.5664907 0-.9989531-.2308243-1.2973864-.692473-.2984334-.4616486-.3783019-1.1559906-.2396055-2.083026.1386964-.9270353.4198257-1.6438056.8433878-2.1503108.423562-.5065052.9365156-.75975777 1.5388602-.75975777.5915885 0 1.0111246.17942617 1.2586081.53827857.1383131.2018545.2316096.5008982.2798897.897131h1.656448c.05208-.5158503-.0538764-1.0298316-.3178693-1.54194386-.4802269-.91208317-1.3872221-1.36812475-2.7209854-1.36812475zm7.9245295-.09532017c-1.1329818 0-2.0469486.32147194-2.7419008.96441581-.9166559.75882327-1.4882341 1.89518917-1.7147343 3.40909777-.2220262 1.4840041.0095219 2.62037.6946444 3.4090977.5025669.6429438 1.3203409.9644158 2.4533227.9644158 1.1329817 0 2.0469488-.321472 2.7419007-.9644158.9175448-.7887277 1.4873303-1.9250936 1.7093564-3.4090977.2265002-1.5139086-.0032551-2.6502745-.6892664-3.40909777-.5025666-.64294387-1.3203409-.96441581-2.4533227-.96441581zm8.2163248.03924949c-1.1616651 0-2.1560579.40370893-2.983179 1.21112682-.8271211.80741787-1.3407889 1.88023697-1.5410039 3.21845737-.197978 1.3232682-.0044364 2.366183.5806247 3.1287443.5569372.7588233 1.360665 1.1382349 2.4111827 1.1382349.6381987 0 1.1969788-.1401767 1.6763404-.4205301.2786105-.160736.6068265-.4373514.9846481-.8298462l.0123647 1.0317007h1.0971279l.6635618-4.4351913h-3.30214l-.2063668 1.3793389h1.8339247c-.1635566.5420166-.4478385.9803025-.8528453 1.3148576-.4050068.334555-.8853777.5018326-1.4411125.5018326-.5664909 0-1.0404319-.2111996-1.4218235-.6335988-.3813914-.4223991-.4960277-1.1419729-.3439091-2.1587214.1510002-1.0092723.4693738-1.7652921.955121-2.2680592.4857469-.5027672 1.0477197-.75415076 1.6859184-.75415076.3334408 0 .627178.06167775.8812119.18503326.4540567.2242827.7016052.6186466.7426456 1.1830915h1.6295575c.0294877-.7962038-.2215751-1.4606414-.7531888-1.99331293-.5316136-.53267151-1.3011673-.79900726-2.3086605-.79900726zm8.66359.21306861h-3.8883504l-1.2365236 8.26481918h1.6188015l.4848784-3.2408857h1.7102288c.4876125 0 .8070143.0878441.9582057.2635322.1511914.1756882.1909445.5270645.1192597 1.0541289l-.1041717.7681684c-.0327665.242973-.0449745.4803389-.0366241.7120977.0047346.1121414.0184977.2597942.0412894.4429585h1.8231685l.0310389-.2074616c-.1426571-.1009272-.2195589-.2579251-.2307058-.4709937-.0085495-.1345697.015418-.3906258.0719034-.7681684l.0830501-.5550998c.0866852-.5793971.0749504-1.0102069-.0352043-1.2924294-.1101547-.2822224-.336622-.4999636-.6794017-.6532234.4609059-.156998.8147541-.4252027 1.0615443-.8046144.2467906-.3794116.3995466-.7653649.458269-1.1578597.0486556-.3252099.0418028-.6149085-.0205583-.8690956-.0623611-.25418711-.1639315-.48594595-.3047116-.6952765-.1699226-.25418712-.3947867-.44669648-.6745924-.57752807-.2798055-.13083161-.696737-.20185449-1.2507938-.21306861zm7.8511095 0h-1.8715711l-4.0653924 8.26481918h1.731741l.8027477-1.6989418h2.9202963l.2567337 1.6989418h1.7962781zm-24.9499745 1.21112682c.6561256 0 1.1390129.25325256 1.4486621.75975776s.3951256 1.2232755.2564292 2.1503109c-.1392557.9307733-.439348 1.6484781-.9002771 2.1531143-.4609289.5046362-1.0194563.7569543-1.6755817.7569543-.6561257 0-1.1418417-.2523181-1.4571487-.7569543-.3153069-.5046362-.4033325-1.222341-.2640768-2.1531143.1392557-.9307734.4420371-1.6484782.9083441-2.1531144.4663071-.5046362 1.0275234-.75695426 1.6836489-.75695426zm23.7153489.67845526.5030104 3.2520998h-2.0114013zm-39.3838623.9756921c.6797896 0 1.1345203.2545254 1.3641919.7635764.1242737.2741044.1805249.6402295.1687536 1.0983753h-3.5070078c.0845131-.5403771.3128396-.9857967.6849797-1.3362587.3721403-.350462.8018343-.525693 1.2890826-.525693zm32.2084257-1.4298646c.3585384 0 .620172.0485946.7849006.1457838.2933733.1719501.4025896.5083742.3276487 1.0092723-.0693481.4635177-.2806945.7737755-.6340389.9307734-.1998621.0897131-.4862335.1345696-.8591135.1345696h-1.8769492l.3322003-2.2203991z" fill="#999"/><path d="m6.087 14.983 4.198 4.356 8.475-6.653-8.475 3.194z" fill="#c4c8cc"/><path d="m4.604 11.184 5.681 7.774 11.482-16.228-11.482 11.406z" fill="#3c4a55"/><path d="m6.087 14.983 4.198 4.356 8.475-6.653-8.475 3.194z" fill="#c4c8cc"/><path d="m4.604 11.184 5.681 7.774 11.482-16.228-11.482 11.406z" fill="#6e6e6e"/></g></g></g></svg>