<svg height="30" viewBox="0 0 94 30" width="94" xmlns="http://www.w3.org/2000/svg"><g fill="#777" fill-rule="evenodd"><path d="m14.1567351 22.2660487c1.807917 0 2.7168271.8855143 2.7168271.8855143l-.8696937 1.6057588s-.6351873-.6326793-1.6809587-.6326793c-1.3093931 0-1.8372304.7981462-1.8372304 1.7029879 0 1.0608421.703519 1.8197417 1.7687006 1.8197417.6547956 0 1.1630247-.3405976 1.2315544-.4281629v-.3114092h-.8895v-1.4984715h2.6387904v3.9311705h-1.6809588v-.3015482c0-.10709.0097051-.2043191.0196083-.2238438h-.0392165c-.0879398.1167538-.6448924.642343-1.7688986.642343-1.8958569 0-3.4496594-1.4111035-3.4496594-3.5811064 0-2.0435855 1.5147841-3.6102949 3.8406353-3.6102949zm7.2910869 0c2.2478145 0 3.7526955 1.5278572 3.7526955 3.551918 0 2.0727739-1.504881 3.6394833-3.7526955 3.6394833-2.2476164 0-3.7526954-1.5667094-3.7526954-3.6394833 0-2.0240608 1.505079-3.551918 3.7526954-3.551918zm21.4044463 0c2.2478145 0 3.7528936 1.5278572 3.7528936 3.551918 0 2.0727739-1.5050791 3.6394833-3.7528936 3.6394833-2.2476164 0-3.7524973-1.5667094-3.7524973-3.6394833 0-2.0240608 1.5048809-3.551918 3.7524973-3.551918zm25.5778271 0c2.2476164 0 3.7526955 1.5278572 3.7526955 3.551918 0 2.0727739-1.5050791 3.6394833-3.7526955 3.6394833s-3.7526954-1.5667094-3.7526954-3.6394833c0-2.0240608 1.505079-3.551918 3.7526954-3.551918zm7.8484356 0c2.2476164 0 3.7524974 1.5278572 3.7524974 3.551918 0 2.0727739-1.504881 3.6394833-3.7524974 3.6394833-2.2478144 0-3.7528935-1.5667094-3.7528935-3.6394833 0-2.0240608 1.5050791-3.551918 3.7528935-3.551918zm-47.3635442.116951c1.5343924 0 2.5801638.8269401 2.5801638 2.2867567 0 .7977517-.4105841 1.5471847-1.0651816 1.9461592v.0193275c.0194102.0390494.1562715.21418.302838.476876l1.2214531 2.2283799h-2.2965379l-1.0847898-2.1796667h-.5862658v2.1796667h-2.1109531v-6.9574993zm6.2845319 0c2.1598746 0 3.5377974 1.274825 3.5377974 3.4641554 0 2.1895277-1.3779228 3.4933439-3.5377974 3.4933439h-2.8340802v-6.9574993zm14.1036543 0 1.7201752 2.8510009c.1802676.2934622.3273076.6274792.4137484.8410037l.0530406.1350348c.0204115.0537048.0313389.0848036.0313389.0848036h.0392164s-.0782348-.6228182-.0782348-1.0608421v-2.8510009h2.0426215v6.9574993h-2.0523265l-1.7296823-2.9872794c-.2541145-.4184992-.498524-1.0509812-.498524-1.0509812h-.0390183s.0782348.6129573.0782348 1.0509812v2.9872794h-1.9937v-6.9574993zm9.7052742 0 .8795968 2.802485c.1366633.4474904.2929348 1.1190218.2929348 1.1190218h.0392164s.1465665-.6715314.2931329-1.1190218l.8795968-2.802485h2.2965379l.5179342 6.9574993h-1.9643866l-.1952899-2.8997141c-.0390184-.5255892 0-1.119219 0-1.119219h-.0390184s-.1760778.6811952-.3226442 1.119219l-.6351874 1.9753476h-1.7003689l-.6450905-1.9753476c-.1368614-.4380238-.3127411-1.119219-.3127411-1.119219h-.0390184s.0293133.5936298-.0097051 1.119219l-.1857828 2.8997141h-1.9837968l.5276392-6.9574993zm24.5415626 0c2.1598746 0 3.5377973 1.274825 3.5377973 3.4641554 0 2.1895277-1.3779227 3.4933439-3.5377973 3.4933439h-2.8338822v-6.9574993zm5.3564098 0 .6744037 1.4400947c.1503754.3367897.3063762.7773237.3703684.9627116l.0265732.077744c.0023284.0068974.0035413.0105255.0035413.0105255h.0392165s.205193-.6131545.410386-1.0509811l.6547956-1.4400947h2.2769297l-2.306243 4.2037274v2.7537719h-2.110755v-2.7537719l-2.3064411-4.2037274zm-53.8435642 1.7124544h-.5864639v3.5323933h.5864639c.9479285 0 1.504881-.6032936 1.504881-1.7806923 0-1.1679321-.5862658-1.751701-1.504881-1.751701zm48.3504911 0h-.5864639v3.5323933h.5864639c.9479284 0 1.505079-.6032936 1.505079-1.7806923 0-1.1679321-.5864639-1.751701-1.505079-1.751701zm-61.9655245.0291884c-.9186151 0-1.5831157.6811952-1.5831157 1.6933242 0 1.0606449.6645006 1.7806922 1.5831157 1.7806922.9188133 0 1.5833139-.7200473 1.5833139-1.7806922 0-1.012129-.6645006-1.6933242-1.5833139-1.6933242zm21.4044463 0c-.9184171 0-1.5829177.6811952-1.5829177 1.6933242 0 1.0606449.6645006 1.7806922 1.5829177 1.7806922.9188133 0 1.5833139-.7200473 1.5833139-1.7806922 0-1.012129-.6645006-1.6933242-1.5833139-1.6933242zm25.5778271 0c-.9186151 0-1.5831158.6811952-1.5831158 1.6933242 0 1.0606449.6645007 1.7806922 1.5831158 1.7806922.9186152 0 1.5833139-.7200473 1.5833139-1.7806922 0-1.012129-.6646987-1.6933242-1.5833139-1.6933242zm7.8484356 0c-.9188132 0-1.5833138.6811952-1.5833138 1.6933242 0 1.0606449.6645006 1.7806922 1.5833138 1.7806922.9184171 0 1.5831158-.7200473 1.5831158-1.7806922 0-1.012129-.6646987-1.6933242-1.5831158-1.6933242zm-47.744617-.0485159h-.5472474v1.4596194h.6254822c.4692108 0 .7425374-.2820235.7425374-.7395721 0-.4380238-.1855848-.7200473-.8207722-.7200473z"/><path d="m4.1674389 24.0216941c1.01408142 0 1.83624001.8188542 1.83624001 1.8286165 0 1.0099596-.82215859 1.8286165-1.83624001 1.8286165-1.01427948 0-1.83663613-.8186569-1.83663613-1.8286165 0-1.0097623.82235665-1.8286165 1.83663613-1.8286165"/><path d="m4.1674389 23.5363376.83344817-.8334483v-.9987181h-1.6670944v.9987181z"/><path d="m3.00520652 23.846169.30442249-1.1363771-.50149495-.8677645-1.44566021.8332512.50169301.8644118z"/><g transform="translate(0 23.057687)"><path d="m2.15115983 1.63573612-.30442249-1.1365743-.87147622-.49916182-.83344817 1.43950301.87147622.49916182z"/><path d="m1.83980514 2.792624-.83344817-.82989843h-1.00635697v1.65999408h1.00635697z"/></g><path d="m2.15115983 27.0073957-1.13787066-.3029287-.87147622.4991618.83344817 1.439503.87147622-.499359z"/><path d="m3.00183946 27.8580022-1.1376726.3031259-.50506008.8677645 1.44566021.8298984.50486202-.8677645z"/><path d="m4.1674389 28.1680308-.8370133.8298984v1.0020708h1.67046147v-1.0020708z"/><path d="m5.32927515 27.8580022-.30422442 1.1330243.50129689.8677645 1.44566021-.8298984-.50149495-.8677645z"/><path d="m6.18015285 27.0109457.30422442 1.1328271.87147622.502909.8370133-1.439503-.87167428-.5027118z"/><path d="m6.49130947 25.8503106.83681523.8332512h1.00298991v-1.6631496h-1.00298991z"/><path d="m6.18015285 24.6934227 1.14103966.3029287.87167428-.4991618-.8370133-1.439503-.86810915.4991618z"/><path d="m5.32927515 23.846169 1.14123773-.3029287.50149495-.8679617-1.44566021-.8332512-.50129689.8677645z"/><path d="m89.3902869 10.6058574 4.6097131 4.5121783-4.4534416 4.6161128h-89.40831058v-9.1282911zm-9.641696 1.0322454c-1.7120546 0-2.7823859 1.4531111-2.7823859 3.5069519 0 2.1118233 1.0703313 3.6033922 2.7823859 3.6033922 1.7025476 0 2.7823859-1.5014298 2.7823859-3.5939256 0-2.0729712-1.0798383-3.5164185-2.7823859-3.5164185zm-12.5504459 0c-1.9067504 0-3.025607 1.4919633-3.025607 3.5456069 0 2.0341189 1.0895433 3.5647372 2.9574734 3.5647372.8465203 0 1.4203081-.2615127 1.8582249-.61986l-.4864421-.997732c-.3503731.2808402-.7783868.5036979-1.2842391.5036979-1.1382668 0-1.8289117-1.1527463-1.8289117-2.4991618 0-1.3176215.6518246-2.3831969 1.8483219-2.3831969.4280136 0 .9144558.2131939 1.1479718.4747066l.4963453-1.0172567c-.4476218-.3970022-1.0897414-.5715412-1.6831374-.5715412zm-62.42245531 0c-1.80950153 0-2.98658862 1.4337836-2.98658862 3.5745981 0 2.2279854 1.31315621 3.535746 2.7142523 3.535746.61280623 0 1.16738201-.2615127 1.44942341-.6295237h.01960821s-.01960821.1451533-.01960821.2615127v.2518489h.93406406v-3.6327778h-1.82891169v1.0462479h.77818865v1.0851c-.26263124.3196924-.68093983.4843704-1.10895349.4843704-.98258944 0-1.72215585-.959077-1.72215585-2.4411793 0-1.4144562.64211952-2.4218519 1.81920661-2.4218519.49634532 0 .96317929.1936692 1.27453397.4843703l.50585234-.9977319c-.48644218-.3875358-1.18679217-.6007297-1.82891169-.6007297zm35.45323721 0c-1.8095016 0-2.9865887 1.4337836-2.9865887 3.5745981 0 2.2279854 1.3133543 3.535746 2.7142523 3.535746.6128063 0 1.167382-.2615127 1.4494234-.6295237h.0196083s-.0196083.1451533-.0196083.2615127v.2518489h.933866v-3.6327778h-1.8287136v1.0462479h.7781887v1.0851c-.2626313.3196924-.6809399.4843704-1.1089535.4843704-.9825895 0-1.7221559-.959077-1.7221559-2.4411793 0-1.4144562.6423176-2.4218519 1.8192066-2.4218519.4963454 0 .9631793.1936692 1.274534.4843703l.5058523-.9977319c-.4864421-.3875358-1.1867921-.6007297-1.8289116-.6007297zm-9.8556038.1163593h-1.1869903v6.8780199h1.1869903zm21.9297087 0h-1.9164554v6.8778227h1.9164554c1.7023496 0 2.7823859-1.2785721 2.7823859-3.4485751s-1.0800363-3.4292476-2.7823859-3.4292476zm-4.5142468 0h-1.2844371l-1.8093035 6.8778227h1.1867922l.4183086-1.7728035h1.6928425l.4280137 1.7728035h1.1867922zm26.0834814 0h-4.5140488v1.0462479h1.6635293v5.8315748h1.1770871v-5.8315748h1.6734324zm-59.1922495 0h-1.3034511l-.4476219 6.8778227h1.1089535l.233516-3.8264471c.0293133-.4551819-.009705-1.0655754-.009705-1.0655754h.0390183s.116659.7072281.223811 1.1044276l.7391702 2.6058574h1.157875l.7393684-2.6058574c.0246817-.0938915.050397-.2032642.0753545-.3159727l.0483739-.2262661c.0617357-.2980224.1095895-.5621888.1095895-.5621888h.0293133s-.0390183.6103935-.0099031 1.0655754l.233516 3.8264471h1.0994465l-.4379168-6.8778227h-1.3036492l-.933866 3.3420767c-.0972488.416527-.2139078 1.0460507-.2139078 1.0460507h-.0293133l-.0084186-.0485598c-.0272382-.1553649-.116394-.6503851-.2056873-.9974909zm18.2908995 0h-1.2452207v6.8778227h1.1188566v-3.8942905c0-.4068632-.0681336-1.0557144-.0681336-1.0557144h.0388203s.1655805.6198599.3503731 1.0460506l1.7801882 3.9039543h1.2355156v-6.8778227h-1.1089535v3.8844295c0 .4068633.0679356 1.0559117.0679356 1.0559117h-.0388203s-.1653824-.6295237-.350175-1.0462479zm-6.8492089 0h-1.1867922v6.8778227h3.4146023v-1.0460507h-2.2278101zm58.7153142 0h-1.2452207v6.8778227h1.1188567v-3.8942905c0-.4068632-.0681336-1.0557144-.0681336-1.0557144h.0388203s.1653824.6198599.350373 1.0460506l1.7801883 3.9039543h1.2355156v-6.8778227h-1.1089535v3.8844295c0 .4068633.0681336 1.0559117.0681336 1.0559117h-.0390184s-.1653824-.6295237-.350175-1.0462479zm-26.7646192 0h-1.9164555v6.8778227h1.9164555c1.7023496 0 2.7821878-1.2785721 2.7821878-3.4485751s-1.0798382-3.4292476-2.7821878-3.4292476zm5.0395093 0h-1.1867922v6.8780199h1.1867922zm-41.3392668 0h-1.867732v6.8778227h1.9065523c1.2163035 0 2.0820359-.6101962 2.0820359-1.9858002 0-.7364166-.3210597-1.4045952-1.0313129-1.6274529v-.0195247c.5058524-.2711765.807502-.823193.807502-1.4724387 0-1.1428853-.7977969-1.7726062-1.8970453-1.7726062zm54.1331319 0h-1.1867922v6.8780199h1.1867922zm-65.3704216 0h-1.28404103l-1.80950153 6.8778227h1.18679216l.41830859-1.7728035h1.69284251l.4280137 1.7728035h1.1867922zm69.2132356 1.0170594c.9728844 0 1.5563773.9202249 1.5563773 2.3829998 0 1.4822995-.5834929 2.460704-1.5563773 2.460704-.9825894 0-1.5662804-.9687407-1.5662804-2.4701706 0-1.4434474.583691-2.3735332 1.5662804-2.3735332zm-57.8202686 2.7801992c.4571289 0 .7490735.4070605.7490735 1.0269205 0 .5715412-.2626313 1.0075929-.8853406 1.0075929h-.70035v-2.0345134zm36.0955548-2.741347c.9920965 0 1.6051007.8233902 1.6051007 2.373336 0 1.5596095-.593396 2.3926634-1.6051007 2.3926634h-.6811379v-4.7659994zm-5.7693706 0c.9920964 0 1.6051007.8233902 1.6051007 2.373336 0 1.5596095-.5933961 2.3926634-1.6051007 2.3926634h-.6811379v-4.7659994zm-5.0884309.1453506s.1069539.6683759.2042028 1.0653782l.4377187 1.8503106h-1.3131562l.4474238-1.8503106c.0875437-.3970023.1946957-1.0653782.1946957-1.0653782zm-37.25323165 0s.10695385.6683759.20420275 1.0653782l.4379168 1.8503106h-1.3133543l.44742381-1.8503106c.08754375-.3970023.19449765-1.0653782.19449765-1.0653782zm11.82098075-.1550143c.466834 0 .7294652.3583473.7294652.8717089s-.2527281.9008973-.6419215.9008973h-.7296632v-1.7726062z"/><path d="m54.9305326 0 4.6099112 4.51237551-4.4536396 4.61591559h-55.0751185v-9.1282911zm-9.4580918 1.03244256c-1.7122527 0-2.7823859 1.45291391-2.7823859 3.50655754 0 2.11182329 1.0701332 3.60358939 2.7823859 3.60358939 1.7025477 0 2.7823859-1.50142984 2.7823859-3.59372843 0-2.07316833-1.0798382-3.5164185-2.7823859-3.5164185zm-39.38339683.11616211h-4.51404876v1.04624791h1.66372733v5.83157479h1.17688902v-5.83157479h1.67343241zm2.03351053 0h-1.18679216v6.8778227h1.18679216v-2.90602504h2.1305613v2.90602504h1.1770871v-6.8778227h-1.1770871v2.92554975h-2.1305613zm7.9486554 0h-3.2882382v6.8778227h3.4048972v-1.0462479h-2.2181051v-1.89862933h1.6928426v-1.0462479h-1.6928426v-1.84044966h2.1014461zm3.1230539 0h-2.0039992v6.8778227h1.1867921v-2.56700522h.7490735l1.050723 2.56700522h1.3036492l-1.1479719-2.55734148c-.116857-.24218519-.2044007-.36820826-.2044007-.36820826v-.01932749c.5252624-.30036485 1.0117046-.97840449 1.0117046-1.88896558 0-.88156987-.4280136-1.54028203-1.0408199-1.83098314-.2919445-.14515334-.6421195-.21299675-.9047507-.21299675zm5.6428085 0h-1.2842391l-1.8095015 6.8778227h1.1867922l.4185066-1.77280347h1.6926445l.4280137 1.77280347h1.1869902zm4.5629703 0h-1.9649809v6.8778227h1.1867922v-2.37333596h.7781887c1.2064003 0 2.0430175-.92022483 2.0430175-2.25717385 0-1.3367518-.8366172-2.24731289-2.0430175-2.24731289zm3.5706757 0h-1.3036492l1.7706812 4.00078888v2.87703382h1.1770871v-2.87703382l1.7704832-4.00078888h-1.3034511l-.7589766 2.01498866c-.1554793.42619071-.2820414.91056109-.2820414.91056109h-.0291152s-.1168571-.48437038-.2723363-.91056109zm9.077019 0h-3.2004964v6.8778227h1.1867922v-2.79952667h1.6829394v-1.0462479h-1.6829394v-1.98580022h2.0137042zm9.2721109 0h-2.0039992v6.8778227h1.1867922v-2.56700522h.7490734l1.050723 2.56700522h1.3036492l-1.1479718-2.55734148c-.116857-.24218519-.2044008-.36820826-.2044008-.36820826v-.01932749c.5252625-.30036485 1.0117047-.97840449 1.0117047-1.88896558 0-.88156987-.4280137-1.54028203-1.0408199-1.83098314-.2917465-.14515334-.6421195-.21299675-.9047508-.21299675zm-5.8474074 1.01725668c.9728844 0 1.5565754.92022483 1.5565754 2.38299971 0 1.48210236-.583691 2.46050685-1.5565754 2.46050685-.9825894 0-1.5662804-.96874075-1.5662804-2.47036781 0-1.44325017.583691-2.37313875 1.5662804-2.37313875zm-21.2580779.18400553s.1069539.6683759.2044008 1.06557538l.4377187 1.85011341h-1.3133542l.4474238-1.85011341c.0145906-.06619991.0297259-.1399325.044819-.21684799l.044566-.2359454c.0576876-.31572604.1053107-.61278199.1053107-.61278199zm5.0008871-.1550143c.5933961 0 1.0216078.46484567 1.0216078 1.20106498 0 .72655557-.3988984 1.21092595-1.041018 1.21092595h-.5739859v-2.41199093zm-10.1863687.00966374c.1653825 0 .3792903.05817967.5349676.16467804.233516.17434178.3697832.5133616.3697832.92022483 0 .70722808-.4377187 1.12375505-.9241609 1.12375505h-.6324145v-2.20865792zm32.1255845 0c.1653824 0 .3792902.05817967.5349676.16467804.233516.17434178.3695851.5133616.3695851.92022483 0 .70722808-.4377187 1.12375505-.9241609 1.12375505h-.6322164v-2.20865792z"/></g></svg>